# Blender v2.80 (sub 39) OBJ File: 'anthonars backpack jetpack parachute thing.blend'
# www.blender.org
mtllib jetpackThrusters.mtl
o jetpackThrusters_Cylinder
v -0.656531 -0.025245 -0.243544
v -0.656531 0.678380 -0.254601
v -0.484319 -0.025245 -0.172211
v -0.476501 0.678380 -0.180030
v -0.412987 -0.025245 0.000000
v -0.401930 0.678380 0.000000
v -0.484319 -0.025245 0.172211
v -0.476501 0.678380 0.180030
v -0.656531 -0.025245 0.243544
v -0.656531 0.678380 0.254601
v -0.828742 -0.025245 0.172211
v -0.836561 0.678380 0.180030
v -0.900074 -0.025245 -0.000000
v -0.911132 0.678380 -0.000000
v -0.828742 -0.025245 -0.172211
v -0.836561 0.678380 -0.180030
v -0.656531 -0.025245 -0.138612
v -0.558517 -0.025245 -0.098013
v -0.517919 -0.025245 0.000000
v -0.558517 -0.025245 0.098013
v -0.656531 -0.025245 0.138612
v -0.754544 -0.025245 0.098013
v -0.795142 -0.025245 -0.000000
v -0.754544 -0.025245 -0.098013
v -0.656531 0.961177 0.000000
v -0.755953 0.891267 0.099423
v -0.808136 0.784823 0.151605
v -0.656531 0.784823 0.214402
v -0.656531 0.891267 0.140605
v -0.656531 0.891267 -0.140605
v -0.656531 0.784823 -0.214402
v -0.808136 0.784823 -0.151605
v -0.755953 0.891267 -0.099423
v -0.557108 0.891267 0.099423
v -0.504925 0.784823 0.151605
v -0.442128 0.784823 0.000000
v -0.515926 0.891267 0.000000
v -0.797136 0.891267 -0.000000
v -0.870933 0.784823 -0.000000
v -0.557108 0.891267 -0.099423
v -0.504925 0.784823 -0.151605
v -0.656531 -0.141326 -0.156874
v -0.545604 -0.141326 -0.110927
v -0.499656 -0.141326 0.000000
v -0.545604 -0.141326 0.110927
v -0.656531 -0.141326 0.156874
v -0.767457 -0.141326 0.110927
v -0.813405 -0.141326 -0.000000
v -0.767457 -0.141326 -0.110927
v -0.656531 -0.141326 -0.126778
v -0.566885 -0.141326 -0.089645
v -0.529753 -0.141326 0.000000
v -0.566885 -0.141326 0.089645
v -0.656531 -0.141326 0.126778
v -0.746176 -0.141326 0.089645
v -0.783308 -0.141326 -0.000000
v -0.746176 -0.141326 -0.089645
v -0.656531 -0.004236 -0.106401
v -0.581293 -0.004236 -0.075237
v -0.550129 -0.004236 0.000000
v -0.581293 -0.004236 0.075237
v -0.656531 -0.004236 0.106401
v -0.731768 -0.004236 0.075237
v -0.762932 -0.004236 -0.000000
v -0.731768 -0.004236 -0.075237
v -0.656531 -0.004236 0.000000
v 0.656531 -0.025245 -0.243544
v 0.656531 0.678380 -0.254601
v 0.484319 -0.025245 -0.172211
v 0.476501 0.678380 -0.180030
v 0.412987 -0.025245 0.000000
v 0.401930 0.678380 0.000000
v 0.484319 -0.025245 0.172211
v 0.476501 0.678380 0.180030
v 0.656531 -0.025245 0.243544
v 0.656531 0.678380 0.254601
v 0.828742 -0.025245 0.172211
v 0.836561 0.678380 0.180030
v 0.900074 -0.025245 -0.000000
v 0.911132 0.678380 -0.000000
v 0.828742 -0.025245 -0.172211
v 0.836561 0.678380 -0.180030
v 0.656531 -0.025245 -0.138612
v 0.558517 -0.025245 -0.098013
v 0.517919 -0.025245 0.000000
v 0.558517 -0.025245 0.098013
v 0.656531 -0.025245 0.138612
v 0.754544 -0.025245 0.098013
v 0.795142 -0.025245 -0.000000
v 0.754544 -0.025245 -0.098013
v 0.656531 0.961177 0.000000
v 0.755953 0.891267 0.099423
v 0.808136 0.784823 0.151605
v 0.656531 0.784823 0.214402
v 0.656531 0.891267 0.140605
v 0.656531 0.891267 -0.140605
v 0.656531 0.784823 -0.214402
v 0.808136 0.784823 -0.151605
v 0.755953 0.891267 -0.099423
v 0.557108 0.891267 0.099423
v 0.504925 0.784823 0.151605
v 0.442128 0.784823 0.000000
v 0.515926 0.891267 0.000000
v 0.797136 0.891267 -0.000000
v 0.870933 0.784823 -0.000000
v 0.557108 0.891267 -0.099423
v 0.504925 0.784823 -0.151605
v 0.656531 -0.141326 -0.156874
v 0.545604 -0.141326 -0.110927
v 0.499656 -0.141326 0.000000
v 0.545604 -0.141326 0.110927
v 0.656531 -0.141326 0.156874
v 0.767457 -0.141326 0.110927
v 0.813405 -0.141326 -0.000000
v 0.767457 -0.141326 -0.110927
v 0.656531 -0.141326 -0.126778
v 0.566885 -0.141326 -0.089645
v 0.529753 -0.141326 0.000000
v 0.566885 -0.141326 0.089645
v 0.656531 -0.141326 0.126778
v 0.746176 -0.141326 0.089645
v 0.783308 -0.141326 -0.000000
v 0.746176 -0.141326 -0.089645
v 0.656531 -0.004236 -0.106401
v 0.581293 -0.004236 -0.075237
v 0.550129 -0.004236 0.000000
v 0.581293 -0.004236 0.075237
v 0.656531 -0.004236 0.106401
v 0.731768 -0.004236 0.075237
v 0.762932 -0.004236 -0.000000
v 0.731768 -0.004236 -0.075237
v 0.656531 -0.004236 0.000000
vt 1.000000 0.000000
vt 1.000000 1.000000
vt 0.875000 1.000000
vt 0.875000 0.000000
vt 0.750000 1.000000
vt 0.750000 0.000000
vt 0.625000 1.000000
vt 0.625000 0.000000
vt 0.500000 1.000000
vt 0.500000 0.000000
vt 0.375000 1.000000
vt 0.375000 0.000000
vt 0.250000 1.000000
vt 0.250000 0.000000
vt 0.125000 1.000000
vt 0.125000 0.000000
vt 0.000000 1.000000
vt 0.000000 0.000000
vt 0.500000 0.000000
vt 0.625000 0.000000
vt 0.125000 0.000000
vt 0.250000 0.000000
vt 0.750000 0.000000
vt 0.875000 0.000000
vt 0.375000 0.000000
vt 0.000000 0.000000
vt 1.000000 0.000000
vt 0.375000 1.000000
vt 0.500000 1.000000
vt 0.375000 1.000000
vt 0.000000 1.000000
vt 0.125000 1.000000
vt 0.000000 1.000000
vt 0.625000 1.000000
vt 0.750000 1.000000
vt 0.625000 1.000000
vt 0.250000 1.000000
vt 0.250000 1.000000
vt 0.875000 1.000000
vt 1.000000 1.000000
vt 0.875000 1.000000
vt 0.500000 1.000000
vt 0.125000 1.000000
vt 0.750000 1.000000
vt 0.875000 1.000000
vt 0.750000 1.000000
vt 0.250000 1.000000
vt 0.125000 1.000000
vt 0.625000 1.000000
vt 0.500000 1.000000
vt 1.000000 1.000000
vt 0.375000 1.000000
vt 0.000000 1.000000
vt 0.000000 0.000000
vt 0.125000 0.000000
vt 0.250000 0.000000
vt 0.375000 0.000000
vt 0.500000 0.000000
vt 0.625000 0.000000
vt 0.750000 0.000000
vt 0.875000 0.000000
vt 1.000000 0.000000
vt 0.125000 0.000000
vt 0.250000 0.000000
vt 0.375000 0.000000
vt 0.500000 0.000000
vt 0.625000 0.000000
vt 0.750000 0.000000
vt 0.875000 0.000000
vt 1.000000 0.000000
vt 0.000000 0.000000
vt 0.500000 0.000000
vt 0.625000 0.000000
vt 0.750000 0.000000
vt 0.875000 0.000000
vt 0.125000 0.000000
vt 0.250000 0.000000
vt 0.375000 0.000000
vt 1.000000 0.000000
vt 0.000000 0.000000
vt 0.500000 0.000000
vt 1.000000 0.000000
vt 0.875000 0.000000
vt 0.875000 1.000000
vt 1.000000 1.000000
vt 0.750000 0.000000
vt 0.750000 1.000000
vt 0.625000 0.000000
vt 0.625000 1.000000
vt 0.500000 0.000000
vt 0.500000 1.000000
vt 0.375000 0.000000
vt 0.375000 1.000000
vt 0.250000 0.000000
vt 0.250000 1.000000
vt 0.125000 0.000000
vt 0.125000 1.000000
vt 0.000000 0.000000
vt 0.000000 1.000000
vt 0.625000 0.000000
vt 0.500000 0.000000
vt 0.250000 0.000000
vt 0.125000 0.000000
vt 0.875000 0.000000
vt 0.750000 0.000000
vt 0.375000 0.000000
vt 0.000000 0.000000
vt 1.000000 0.000000
vt 0.375000 1.000000
vt 0.375000 1.000000
vt 0.500000 1.000000
vt 0.000000 1.000000
vt 0.000000 1.000000
vt 0.125000 1.000000
vt 0.625000 1.000000
vt 0.625000 1.000000
vt 0.750000 1.000000
vt 0.250000 1.000000
vt 0.250000 1.000000
vt 0.875000 1.000000
vt 0.875000 1.000000
vt 1.000000 1.000000
vt 0.500000 1.000000
vt 0.125000 1.000000
vt 0.750000 1.000000
vt 0.750000 1.000000
vt 0.875000 1.000000
vt 0.125000 1.000000
vt 0.250000 1.000000
vt 0.500000 1.000000
vt 0.625000 1.000000
vt 1.000000 1.000000
vt 0.375000 1.000000
vt 0.000000 1.000000
vt 0.125000 0.000000
vt 0.000000 0.000000
vt 0.375000 0.000000
vt 0.250000 0.000000
vt 0.625000 0.000000
vt 0.500000 0.000000
vt 0.875000 0.000000
vt 0.750000 0.000000
vt 1.000000 0.000000
vt 0.250000 0.000000
vt 0.125000 0.000000
vt 0.500000 0.000000
vt 0.375000 0.000000
vt 0.750000 0.000000
vt 0.625000 0.000000
vt 1.000000 0.000000
vt 0.875000 0.000000
vt 0.000000 0.000000
vt 0.625000 0.000000
vt 0.500000 0.000000
vt 0.875000 0.000000
vt 0.750000 0.000000
vt 0.250000 0.000000
vt 0.125000 0.000000
vt 0.375000 0.000000
vt 1.000000 0.000000
vt 0.000000 0.000000
vt 0.500000 0.000000
vn 0.0000 -0.6361 -0.7715
vn 0.0000 0.1646 -0.9864
vn 0.6974 0.1646 -0.6974
vn 0.5455 -0.6361 -0.5455
vn 0.9864 0.1646 0.0000
vn 0.7715 -0.6361 0.0000
vn 0.6974 0.1646 0.6974
vn 0.5455 -0.6361 0.5455
vn 0.0000 0.1646 0.9864
vn 0.0000 -0.6361 0.7715
vn -0.6974 0.1646 0.6974
vn -0.5455 -0.6361 0.5455
vn -0.9864 0.1646 0.0000
vn -0.7715 -0.6361 0.0000
vn -0.6974 0.1646 -0.6974
vn -0.5455 -0.6361 -0.5455
vn 0.0000 -0.7574 0.6529
vn 0.4617 -0.7574 0.4617
vn -0.4617 -0.7574 -0.4617
vn -0.6529 -0.7574 0.0000
vn 0.6529 -0.7574 0.0000
vn 0.4617 -0.7574 -0.4617
vn -0.4617 -0.7574 0.4617
vn 0.0000 -0.7574 -0.6529
vn -0.4855 0.7270 0.4855
vn 0.0000 0.7270 0.6866
vn 0.0000 1.0000 0.0000
vn 0.0000 0.7270 -0.6866
vn -0.4855 0.7270 -0.4855
vn 0.4855 0.7270 0.4855
vn 0.6866 0.7270 0.0000
vn -0.6866 0.7270 0.0000
vn 0.4855 0.7270 -0.4855
vn 0.6303 0.4531 -0.6303
vn 0.8914 0.4531 0.0000
vn -0.8914 0.4531 0.0000
vn -0.6303 0.4531 -0.6303
vn 0.6303 0.4531 0.6303
vn 0.0000 0.4531 0.8914
vn 0.0000 0.4531 -0.8914
vn -0.6303 0.4531 0.6303
vn 0.0000 -0.5708 -0.8210
vn -0.5806 -0.5708 -0.5806
vn -0.8210 -0.5708 0.0000
vn -0.5806 -0.5708 0.5806
vn 0.0000 -0.5708 0.8210
vn 0.5806 -0.5708 0.5806
vn 0.8210 -0.5708 0.0000
vn 0.5806 -0.5708 -0.5806
vn 0.3807 -0.8426 0.3807
vn 0.5384 -0.8426 0.0000
vn 0.3807 -0.8426 -0.3807
vn 0.0000 -0.8426 -0.5384
vn -0.3807 -0.8426 -0.3807
vn -0.5384 -0.8426 0.0000
vn -0.3807 -0.8426 0.3807
vn 0.0000 -0.8426 0.5384
vn 0.0000 -0.6848 -0.7287
vn -0.5153 -0.6848 -0.5153
vn -0.7287 -0.6848 0.0000
vn -0.5153 -0.6848 0.5153
vn 0.5153 -0.6848 0.5153
vn 0.7287 -0.6848 0.0000
vn 0.5153 -0.6848 -0.5153
vn 0.0000 -0.6848 0.7287
vn 0.0000 -1.0000 0.0000
usemtl None
s 1
f 1/1/1 2/2/2 4/3/3 3/4/4
f 3/4/4 4/3/3 6/5/5 5/6/6
f 5/6/6 6/5/5 8/7/7 7/8/8
f 7/8/8 8/7/7 10/9/9 9/10/10
f 9/10/10 10/9/9 12/11/11 11/12/12
f 11/12/12 12/11/11 14/13/13 13/14/14
f 13/14/14 14/13/13 16/15/15 15/16/16
f 15/16/16 16/15/15 2/17/2 1/18/1
f 7/8/8 9/10/10 21/19/17 20/20/18
f 13/14/14 15/16/16 24/21/19 23/22/20
f 3/4/4 5/6/6 19/23/21 18/24/22
f 9/10/10 11/12/12 22/25/23 21/19/17
f 15/16/16 1/18/1 17/26/24 24/21/19
f 1/1/1 3/4/4 18/24/22 17/27/24
f 5/6/6 7/8/8 20/20/18 19/23/21
f 11/12/12 13/14/14 23/22/20 22/25/23
f 26/28/25 29/29/26 25/30/27
f 30/31/28 33/32/29 25/33/27
f 34/34/30 37/35/31 25/36/27
f 38/37/32 26/28/25 25/38/27
f 40/39/33 30/40/28 25/41/27
f 29/29/26 34/34/30 25/42/27
f 33/32/29 38/37/32 25/43/27
f 37/35/31 40/39/33 25/44/27
f 6/5/5 4/3/3 41/45/34 36/46/35
f 36/46/35 41/45/34 40/39/33 37/35/31
f 16/15/15 14/13/13 39/47/36 32/48/37
f 32/48/37 39/47/36 38/37/32 33/32/29
f 10/9/9 8/7/7 35/49/38 28/50/39
f 28/50/39 35/49/38 34/34/30 29/29/26
f 4/3/3 2/2/2 31/51/40 41/45/34
f 41/45/34 31/51/40 30/40/28 40/39/33
f 14/13/13 12/11/11 27/52/41 39/47/36
f 39/47/36 27/52/41 26/28/25 38/37/32
f 8/7/7 6/5/5 36/46/35 35/49/38
f 35/49/38 36/46/35 37/35/31 34/34/30
f 2/17/2 16/15/15 32/48/37 31/53/40
f 31/53/40 32/48/37 33/32/29 30/31/28
f 12/11/11 10/9/9 28/50/39 27/52/41
f 27/52/41 28/50/39 29/29/26 26/28/25
f 24/21/19 17/26/24 42/54/42 49/55/43
f 22/25/23 23/22/20 48/56/44 47/57/45
f 20/20/18 21/19/17 46/58/46 45/59/47
f 18/24/22 19/23/21 44/60/48 43/61/49
f 23/22/20 24/21/19 49/55/43 48/56/44
f 21/19/17 22/25/23 47/57/45 46/58/46
f 19/23/21 20/20/18 45/59/47 44/60/48
f 17/27/24 18/24/22 43/61/49 42/62/42
f 48/56/44 49/55/43 57/63/50 56/64/51
f 46/58/46 47/57/45 55/65/52 54/66/53
f 44/60/48 45/59/47 53/67/54 52/68/55
f 42/62/42 43/61/49 51/69/56 50/70/57
f 49/55/43 42/54/42 50/71/57 57/63/50
f 47/57/45 48/56/44 56/64/51 55/65/52
f 45/59/47 46/58/46 54/66/53 53/67/54
f 43/61/49 44/60/48 52/68/55 51/69/56
f 53/67/54 54/66/53 62/72/58 61/73/59
f 51/69/56 52/68/55 60/74/60 59/75/61
f 56/64/51 57/63/50 65/76/62 64/77/63
f 54/66/53 55/65/52 63/78/64 62/72/58
f 52/68/55 53/67/54 61/73/59 60/74/60
f 50/70/57 51/69/56 59/75/61 58/79/65
f 57/63/50 50/71/57 58/80/65 65/76/62
f 55/65/52 56/64/51 64/77/63 63/78/64
f 66/81/66 62/72/58 63/78/64 64/77/63
f 58/80/65 66/81/66 64/77/63 65/76/62
f 60/74/60 61/73/59 62/72/58 66/81/66
f 59/75/61 60/74/60 66/81/66 58/80/65
f 67/82/1 69/83/16 70/84/15 68/85/2
f 69/83/16 71/86/14 72/87/13 70/84/15
f 71/86/14 73/88/12 74/89/11 72/87/13
f 73/88/12 75/90/10 76/91/9 74/89/11
f 75/90/10 77/92/8 78/93/7 76/91/9
f 77/92/8 79/94/6 80/95/5 78/93/7
f 79/94/6 81/96/4 82/97/3 80/95/5
f 81/96/4 67/98/1 68/99/2 82/97/3
f 73/88/12 86/100/23 87/101/17 75/90/10
f 79/94/6 89/102/21 90/103/22 81/96/4
f 69/83/16 84/104/19 85/105/20 71/86/14
f 75/90/10 87/101/17 88/106/18 77/92/8
f 81/96/4 90/103/22 83/107/24 67/98/1
f 67/82/1 83/108/24 84/104/19 69/83/16
f 71/86/14 85/105/20 86/100/23 73/88/12
f 77/92/8 88/106/18 89/102/21 79/94/6
f 92/109/30 91/110/27 95/111/26
f 96/112/28 91/113/27 99/114/33
f 100/115/25 91/116/27 103/117/32
f 104/118/31 91/119/27 92/109/30
f 106/120/29 91/121/27 96/122/28
f 95/111/26 91/123/27 100/115/25
f 99/114/33 91/124/27 104/118/31
f 103/117/32 91/125/27 106/120/29
f 72/87/13 102/126/36 107/127/37 70/84/15
f 102/126/36 103/117/32 106/120/29 107/127/37
f 82/97/3 98/128/34 105/129/35 80/95/5
f 98/128/34 99/114/33 104/118/31 105/129/35
f 76/91/9 94/130/39 101/131/41 74/89/11
f 94/130/39 95/111/26 100/115/25 101/131/41
f 70/84/15 107/127/37 97/132/40 68/85/2
f 107/127/37 106/120/29 96/122/28 97/132/40
f 80/95/5 105/129/35 93/133/38 78/93/7
f 105/129/35 104/118/31 92/109/30 93/133/38
f 74/89/11 101/131/41 102/126/36 72/87/13
f 101/131/41 100/115/25 103/117/32 102/126/36
f 68/99/2 97/134/40 98/128/34 82/97/3
f 97/134/40 96/112/28 99/114/33 98/128/34
f 78/93/7 93/133/38 94/130/39 76/91/9
f 93/133/38 92/109/30 95/111/26 94/130/39
f 90/103/22 115/135/49 108/136/42 83/107/24
f 88/106/18 113/137/47 114/138/48 89/102/21
f 86/100/23 111/139/45 112/140/46 87/101/17
f 84/104/19 109/141/43 110/142/44 85/105/20
f 89/102/21 114/138/48 115/135/49 90/103/22
f 87/101/17 112/140/46 113/137/47 88/106/18
f 85/105/20 110/142/44 111/139/45 86/100/23
f 83/108/24 108/143/42 109/141/43 84/104/19
f 114/138/48 122/144/55 123/145/56 115/135/49
f 112/140/46 120/146/53 121/147/54 113/137/47
f 110/142/44 118/148/51 119/149/52 111/139/45
f 108/143/42 116/150/57 117/151/50 109/141/43
f 115/135/49 123/145/56 116/152/57 108/136/42
f 113/137/47 121/147/54 122/144/55 114/138/48
f 111/139/45 119/149/52 120/146/53 112/140/46
f 109/141/43 117/151/50 118/148/51 110/142/44
f 119/149/52 127/153/64 128/154/58 120/146/53
f 117/151/50 125/155/62 126/156/63 118/148/51
f 122/144/55 130/157/60 131/158/61 123/145/56
f 120/146/53 128/154/58 129/159/59 121/147/54
f 118/148/51 126/156/63 127/153/64 119/149/52
f 116/150/57 124/160/65 125/155/62 117/151/50
f 123/145/56 131/158/61 124/161/65 116/152/57
f 121/147/54 129/159/59 130/157/60 122/144/55
f 132/162/66 130/157/60 129/159/59 128/154/58
f 124/161/65 131/158/61 130/157/60 132/162/66
f 126/156/63 132/162/66 128/154/58 127/153/64
f 125/155/62 124/161/65 132/162/66 126/156/63
